<svg width="35" height="30" viewBox="0 0 35 30" fill="none" xmlns="http://www.w3.org/2000/svg">
<g clip-path="url(#clip0_1043_2)">
<path d="M15.1266 21.5551H10.5404V17.7348H15.1266C16.1726 17.7348 17.0174 18.5793 17.0174 19.6248C17.0174 20.6704 16.1726 21.5551 15.1266 21.5551ZM10.5404 10.8179H14.7243C15.7703 10.8179 16.6151 11.6624 16.6151 12.7079C16.6151 13.7535 15.7703 14.598 14.7243 14.598H10.5404V10.8179ZM19.5519 15.7642C20.1955 14.9197 20.5978 13.8742 20.5978 12.7079C20.5978 9.93316 18.345 7.68115 15.5691 7.68115H6.35645V14.598V17.7348V24.6516H11.0634H16.3737C19.1496 24.6516 21.4024 22.3996 21.4024 19.6248C21.4024 18.0565 20.6783 16.6892 19.5519 15.7642Z" fill="#3B82F6"/>
<path d="M35 4.62467C35 5.22788 34.7586 5.75067 34.2759 6.15282C33.7931 6.55496 33.1897 6.75603 32.4655 6.75603C31.7816 6.75603 31.1782 6.55496 30.6954 6.19303C30.2127 5.8311 29.931 5.34853 29.8506 4.70509H31.7414C31.9023 5.06702 32.1437 5.2681 32.5058 5.2681C32.7471 5.2681 32.9081 5.22788 33.069 5.10724C33.2299 4.9866 33.2701 4.82574 33.2701 4.62467C33.2701 4.42359 33.1897 4.30295 33.069 4.18231C32.9081 4.06166 32.7471 4.02145 32.4655 4.02145H31.8219V2.69437H32.4253C32.6667 2.69437 32.8678 2.65416 32.9885 2.53351C33.1092 2.41287 33.1897 2.29223 33.1897 2.13137C33.1897 1.9303 33.1092 1.76944 32.9885 1.64879C32.8678 1.52815 32.6667 1.48794 32.4655 1.48794C32.2242 1.48794 32.0632 1.56836 31.9023 1.72922C31.8219 1.80965 31.7414 1.93029 31.7012 2.09115H29.931C30.0517 1.44772 30.2931 0.924933 30.7759 0.563003C31.2184 0.201072 31.7816 0 32.4655 0C33.1897 0 33.7529 0.201072 34.2357 0.563003C34.6782 0.965147 34.9196 1.44772 34.9196 2.05094C34.9196 2.61394 34.6782 3.01609 34.2357 3.29759C34.7586 3.57909 35 4.06166 35 4.62467Z" fill="#3B82F6"/>
<path d="M6.39655 4.42367V2.33252H0V30.0001H6.39655V27.9491H2.09195V4.42367H6.39655Z" fill="#3B82F6"/>
<path d="M21.2812 27.9491V30.0001H27.6777V2.33252H21.2812V4.42367H25.626V27.9491H21.2812Z" fill="#3B82F6"/>
</g>
<defs>
<clipPath id="clip0_1043_2">
<rect width="35" height="30" fill="white"/>
</clipPath>
</defs>
</svg>
