<svg width="1507" height="521" viewBox="0 0 1507 521" fill="none" xmlns="http://www.w3.org/2000/svg">
<path d="M539.8 342.2C547.8 342.2 556 342.267 564.4 342.4C572.933 342.4 581.267 342.6 589.4 343C597.533 343.267 604.933 343.867 611.6 344.8L609.6 375.4H559C556.467 375.4 554.467 376.067 553 377.4C551.533 378.733 550.8 380.467 550.8 382.6V441.4C550.8 443.533 551.533 445.267 553 446.6C554.467 447.933 556.467 448.6 559 448.6H609.6L611.6 479.2C604.933 480 597.533 480.6 589.4 481C581.267 481.4 572.933 481.6 564.4 481.6C556 481.733 547.8 481.8 539.8 481.8C530.333 481.8 522.533 478.933 516.4 473.2C510.4 467.333 507.4 459.733 507.4 450.4V373.6C507.4 364.267 510.4 356.733 516.4 351C522.533 345.133 530.333 342.2 539.8 342.2ZM511 396H602.4V424.8H511V396ZM750.741 343L719.341 410.6L753.541 481H710.541L679.341 410.6L707.941 343H750.741ZM661.741 343L690.341 410.6L659.141 481H616.141L650.341 410.6L618.941 343H661.741ZM703.941 398.2V422.2H662.341V398.2H703.941ZM821.292 341C835.959 341 847.426 342.4 855.692 345.2C863.959 347.867 869.826 352.6 873.292 359.4C876.759 366.2 878.492 375.733 878.492 388C878.492 400.133 876.826 409.6 873.492 416.4C870.292 423.067 864.959 427.8 857.492 430.6C850.026 433.267 839.959 434.6 827.292 434.6C820.626 434.6 813.959 434.267 807.292 433.6C800.626 432.8 794.359 431.867 788.492 430.8C782.759 429.6 777.826 428.4 773.692 427.2C769.559 425.867 766.692 424.667 765.092 423.6L765.692 404C774.359 404 783.359 404 792.692 404C802.026 404 811.226 404 820.292 404C824.292 404 827.359 403.6 829.492 402.8C831.626 401.867 833.092 400.267 833.892 398C834.692 395.6 835.092 392.267 835.092 388C835.092 383.6 834.692 380.2 833.892 377.8C833.092 375.4 831.626 373.8 829.492 373C827.359 372.067 824.292 371.6 820.292 371.6C806.692 371.6 795.092 371.667 785.492 371.8C775.892 371.933 769.359 372.2 765.892 372.6L762.892 343C769.026 342.333 774.759 341.867 780.092 341.6C785.559 341.333 791.492 341.2 797.892 341.2C804.292 341.067 812.092 341 821.292 341ZM806.292 343V481H762.892V343H806.292ZM923.589 342.2C931.589 342.2 939.789 342.267 948.189 342.4C956.722 342.4 965.056 342.6 973.189 343C981.322 343.267 988.722 343.867 995.389 344.8L993.389 375.4H942.789C940.256 375.4 938.256 376.067 936.789 377.4C935.322 378.733 934.589 380.467 934.589 382.6V441.4C934.589 443.533 935.322 445.267 936.789 446.6C938.256 447.933 940.256 448.6 942.789 448.6H993.389L995.389 479.2C988.722 480 981.322 480.6 973.189 481C965.056 481.4 956.722 481.6 948.189 481.6C939.789 481.733 931.589 481.8 923.589 481.8C914.122 481.8 906.322 478.933 900.189 473.2C894.189 467.333 891.189 459.733 891.189 450.4V373.6C891.189 364.267 894.189 356.733 900.189 351C906.322 345.133 914.122 342.2 923.589 342.2ZM894.789 396H986.189V424.8H894.789V396ZM1138.33 343V466C1138.33 476 1133.33 481 1123.33 481H1106.73C1102.2 481 1098.8 479.933 1096.53 477.8C1094.4 475.667 1092.2 472.533 1089.93 468.4L1059.93 421C1058.06 417.533 1056.33 413.8 1054.73 409.8C1053.26 405.667 1051.93 401.533 1050.73 397.4H1049.33C1050 401.533 1050.46 405.8 1050.73 410.2C1051.13 414.467 1051.33 418.6 1051.33 422.6V481H1011.33V358C1011.33 348 1016.33 343 1026.33 343H1042.93C1047.46 343 1050.8 344.067 1052.93 346.2C1055.06 348.333 1057.33 351.467 1059.73 355.6L1088.53 400.8C1090.4 404.133 1092.2 407.8 1093.93 411.8C1095.8 415.8 1097.53 420 1099.13 424.4H1100.53C1100 420.133 1099.53 415.933 1099.13 411.8C1098.86 407.667 1098.73 403.533 1098.73 399.4L1098.53 343H1138.33ZM1211.39 340.2C1218.59 340.2 1226.65 340.667 1235.59 341.6C1244.65 342.4 1253.32 344.267 1261.59 347.2L1258.99 375C1252.99 374.867 1245.52 374.8 1236.59 374.8C1227.79 374.667 1219.05 374.6 1210.39 374.6C1207.85 374.6 1205.72 374.667 1203.99 374.8C1202.39 374.933 1201.12 375.2 1200.19 375.6C1199.25 376 1198.59 376.533 1198.19 377.2C1197.79 377.867 1197.59 378.733 1197.59 379.8C1197.59 381.667 1198.39 383.267 1199.99 384.6C1201.72 385.8 1204.92 387.333 1209.59 389.2L1234.59 399.6C1246.05 404.533 1254.05 410.267 1258.59 416.8C1263.25 423.2 1265.59 431.467 1265.59 441.6C1265.59 449.333 1264.65 455.933 1262.79 461.4C1260.92 466.733 1257.79 471.067 1253.39 474.4C1249.12 477.6 1243.39 479.933 1236.19 481.4C1228.99 483 1219.99 483.8 1209.19 483.8C1204.52 483.8 1197.45 483.4 1187.99 482.6C1178.52 481.933 1167.79 480.067 1155.79 477L1158.39 446.6C1166.39 446.733 1173.72 446.933 1180.39 447.2C1187.05 447.333 1192.79 447.467 1197.59 447.6C1202.52 447.6 1206.19 447.6 1208.59 447.6C1212.32 447.6 1215.12 447.467 1216.99 447.2C1218.99 446.933 1220.32 446.467 1220.99 445.8C1221.79 445 1222.19 444 1222.19 442.8C1222.19 441.467 1221.92 440.4 1221.39 439.6C1220.85 438.667 1219.92 437.8 1218.59 437C1217.25 436.2 1215.32 435.333 1212.79 434.4L1185.39 422.4C1174.19 417.333 1166.25 411.667 1161.59 405.4C1156.92 399.133 1154.59 390.933 1154.59 380.8C1154.59 372.933 1155.59 366.4 1157.59 361.2C1159.72 356 1162.99 351.867 1167.39 348.8C1171.79 345.733 1177.59 343.533 1184.79 342.2C1192.12 340.867 1200.99 340.2 1211.39 340.2ZM1312.46 342.2C1320.46 342.2 1328.66 342.267 1337.06 342.4C1345.59 342.4 1353.92 342.6 1362.06 343C1370.19 343.267 1377.59 343.867 1384.26 344.8L1382.26 375.4H1331.66C1329.12 375.4 1327.12 376.067 1325.66 377.4C1324.19 378.733 1323.46 380.467 1323.46 382.6V441.4C1323.46 443.533 1324.19 445.267 1325.66 446.6C1327.12 447.933 1329.12 448.6 1331.66 448.6H1382.26L1384.26 479.2C1377.59 480 1370.19 480.6 1362.06 481C1353.92 481.4 1345.59 481.6 1337.06 481.6C1328.66 481.733 1320.46 481.8 1312.46 481.8C1302.99 481.8 1295.19 478.933 1289.06 473.2C1283.06 467.333 1280.06 459.733 1280.06 450.4V373.6C1280.06 364.267 1283.06 356.733 1289.06 351C1295.19 345.133 1302.99 342.2 1312.46 342.2ZM1283.66 396H1375.06V424.8H1283.66V396ZM1452.6 340.2C1459.8 340.2 1467.86 340.667 1476.8 341.6C1485.86 342.4 1494.53 344.267 1502.8 347.2L1500.2 375C1494.2 374.867 1486.73 374.8 1477.8 374.8C1469 374.667 1460.26 374.6 1451.6 374.6C1449.06 374.6 1446.93 374.667 1445.2 374.8C1443.6 374.933 1442.33 375.2 1441.4 375.6C1440.46 376 1439.8 376.533 1439.4 377.2C1439 377.867 1438.8 378.733 1438.8 379.8C1438.8 381.667 1439.6 383.267 1441.2 384.6C1442.93 385.8 1446.13 387.333 1450.8 389.2L1475.8 399.6C1487.26 404.533 1495.26 410.267 1499.8 416.8C1504.46 423.2 1506.8 431.467 1506.8 441.6C1506.8 449.333 1505.86 455.933 1504 461.4C1502.13 466.733 1499 471.067 1494.6 474.4C1490.33 477.6 1484.6 479.933 1477.4 481.4C1470.2 483 1461.2 483.8 1450.4 483.8C1445.73 483.8 1438.66 483.4 1429.2 482.6C1419.73 481.933 1409 480.067 1397 477L1399.6 446.6C1407.6 446.733 1414.93 446.933 1421.6 447.2C1428.26 447.333 1434 447.467 1438.8 447.6C1443.73 447.6 1447.4 447.6 1449.8 447.6C1453.53 447.6 1456.33 447.467 1458.2 447.2C1460.2 446.933 1461.53 446.467 1462.2 445.8C1463 445 1463.4 444 1463.4 442.8C1463.4 441.467 1463.13 440.4 1462.6 439.6C1462.06 438.667 1461.13 437.8 1459.8 437C1458.46 436.2 1456.53 435.333 1454 434.4L1426.6 422.4C1415.4 417.333 1407.46 411.667 1402.8 405.4C1398.13 399.133 1395.8 390.933 1395.8 380.8C1395.8 372.933 1396.8 366.4 1398.8 361.2C1400.93 356 1404.2 351.867 1408.6 348.8C1413 345.733 1418.8 343.533 1426 342.2C1433.33 340.867 1442.2 340.2 1452.6 340.2Z" fill="white"/>
<path d="M348.914 61.0796C348.914 30.4032 373.701 5.53418 404.277 5.53418H414.242C444.817 5.53418 469.604 30.4032 469.604 61.0796V465.454C469.604 496.131 444.817 521 414.242 521H404.277C373.701 521 348.914 496.131 348.914 465.454V61.0796Z" fill="#0668E1"/>
<path d="M67.7861 5.11377H57.8053C27.1832 5.11377 2.35889 29.9932 2.35889 60.6835V465.226C2.35889 495.916 27.1832 520.795 57.8053 520.795H67.7861C98.4081 520.795 123.232 495.916 123.232 465.226V60.6835C123.232 29.9932 98.4081 5.11377 67.7861 5.11377Z" fill="#0668E1"/>
<path d="M438.266 8.98006L429.175 4.88969C401.284 -7.66508 368.548 4.79053 356.057 32.7088L180.386 425.382C167.895 453.299 180.381 486.11 208.273 498.663L217.364 502.754C245.257 515.309 277.993 502.854 290.482 474.935L466.154 82.2619C478.644 54.3436 466.158 21.5347 438.266 8.98006Z" fill="#FE784F"/>
<path d="M5.24902 87.6115C-8.11769 58.0915 4.92454 23.3508 34.3794 10.0159L43.9795 5.66987C73.434 -7.66503 108.149 5.45609 121.516 34.9764L297.712 424.099C311.079 453.619 298.037 488.36 268.581 501.696L258.982 506.042C229.526 519.375 194.813 506.255 181.446 476.735L5.24902 87.6115Z" fill="#0080FB"/>
</svg>
