<svg width="1460" height="521" viewBox="0 0 1460 521" fill="none" xmlns="http://www.w3.org/2000/svg">
<path d="M566.8 341C581.467 341 592.933 342.4 601.2 345.2C609.467 347.867 615.333 352.6 618.8 359.4C622.267 366.2 624 375.733 624 388C624 400.133 622.333 409.6 619 416.4C615.8 423.067 610.467 427.8 603 430.6C595.533 433.267 585.467 434.6 572.8 434.6C566.133 434.6 559.467 434.267 552.8 433.6C546.133 432.8 539.867 431.867 534 430.8C528.267 429.6 523.333 428.4 519.2 427.2C515.067 425.867 512.2 424.667 510.6 423.6L511.2 404C519.867 404 528.867 404 538.2 404C547.533 404 556.733 404 565.8 404C569.8 404 572.867 403.6 575 402.8C577.133 401.867 578.6 400.267 579.4 398C580.2 395.6 580.6 392.267 580.6 388C580.6 383.6 580.2 380.2 579.4 377.8C578.6 375.4 577.133 373.8 575 373C572.867 372.067 569.8 371.6 565.8 371.6C552.2 371.6 540.6 371.667 531 371.8C521.4 371.933 514.867 372.2 511.4 372.6L508.4 343C514.533 342.333 520.267 341.867 525.6 341.6C531.067 341.333 537 341.2 543.4 341.2C549.8 341.067 557.6 341 566.8 341ZM551.8 343V481H508.4V343H551.8ZM696.297 341C709.897 341 720.964 342.267 729.497 344.8C738.03 347.333 744.297 351.667 748.297 357.8C752.43 363.8 754.497 372.2 754.497 383C754.497 388.467 753.63 393.6 751.897 398.4C750.297 403.067 747.43 406.933 743.297 410C739.297 413.067 733.697 415 726.497 415.8V417C729.03 417.267 731.83 418.067 734.897 419.4C737.964 420.6 740.83 422.733 743.497 425.8C746.164 428.733 748.03 433 749.097 438.6L759.897 481H714.497L705.497 440C704.697 436.133 703.43 433.6 701.697 432.4C700.097 431.2 697.43 430.6 693.697 430.6C683.697 430.467 675.497 430.4 669.097 430.4C662.83 430.4 657.497 430.333 653.097 430.2C648.697 430.067 644.297 429.867 639.897 429.6L640.497 400H695.297C699.43 400 702.63 399.6 704.897 398.8C707.164 398 708.697 396.6 709.497 394.6C710.43 392.467 710.897 389.533 710.897 385.8C710.897 381.933 710.43 379 709.497 377C708.697 375 707.164 373.6 704.897 372.8C702.63 372 699.43 371.6 695.297 371.6C681.43 371.6 669.764 371.667 660.297 371.8C650.83 371.933 644.364 372.2 640.897 372.6L637.697 343C643.83 342.333 649.564 341.867 654.897 341.6C660.364 341.333 666.297 341.2 672.697 341.2C679.23 341.067 687.097 341 696.297 341ZM680.297 343V481H637.697V343H680.297ZM804.253 342.2C812.253 342.2 820.453 342.267 828.853 342.4C837.386 342.4 845.72 342.6 853.853 343C861.986 343.267 869.386 343.867 876.053 344.8L874.053 375.4H823.453C820.92 375.4 818.92 376.067 817.453 377.4C815.986 378.733 815.253 380.467 815.253 382.6V441.4C815.253 443.533 815.986 445.267 817.453 446.6C818.92 447.933 820.92 448.6 823.453 448.6H874.053L876.053 479.2C869.386 480 861.986 480.6 853.853 481C845.72 481.4 837.386 481.6 828.853 481.6C820.453 481.733 812.253 481.8 804.253 481.8C794.786 481.8 786.986 478.933 780.853 473.2C774.853 467.333 771.853 459.733 771.853 450.4V373.6C771.853 364.267 774.853 356.733 780.853 351C786.986 345.133 794.786 342.2 804.253 342.2ZM775.453 396H866.853V424.8H775.453V396ZM1043.99 343C1053.73 343 1058.79 348 1059.19 358L1063.99 481H1024.99L1020.79 375.4H1017.79L1004.19 445.8C1002.86 454.6 997.394 459 987.794 459H965.394C955.927 459 950.394 454.6 948.794 445.8L934.994 375.4H931.994L928.594 481H889.594L894.394 358C894.794 348 899.86 343 909.594 343H946.994C956.327 343 961.794 347.467 963.394 356.4L973.394 411.2C973.927 414.533 974.327 417.933 974.594 421.4C974.994 424.867 975.327 428.333 975.594 431.8H977.394C977.794 428.333 978.127 424.867 978.394 421.4C978.794 417.933 979.26 414.533 979.794 411.2L989.194 356.4C990.794 347.467 996.327 343 1005.79 343H1043.99ZM1125.62 343V481H1082.62V343H1125.62ZM1267.88 343V424C1267.88 438.667 1265.95 450.4 1262.08 459.2C1258.35 467.867 1252.15 474.133 1243.48 478C1234.95 481.867 1223.48 483.8 1209.08 483.8C1193.48 483.8 1181.01 481.867 1171.68 478C1162.48 474.133 1155.81 467.867 1151.68 459.2C1147.68 450.4 1145.68 438.667 1145.68 424V343H1189.08V424C1189.08 431.333 1189.55 437 1190.48 441C1191.55 445 1193.35 447.8 1195.88 449.4C1198.55 450.867 1202.21 451.6 1206.88 451.6C1211.55 451.6 1215.15 450.867 1217.68 449.4C1220.21 447.8 1221.95 445 1222.88 441C1223.95 437 1224.48 431.333 1224.48 424V343H1267.88ZM1439.7 343C1449.43 343 1454.5 348 1454.9 358L1459.7 481H1420.7L1416.5 375.4H1413.5L1399.9 445.8C1398.56 454.6 1393.1 459 1383.5 459H1361.1C1351.63 459 1346.1 454.6 1344.5 445.8L1330.7 375.4H1327.7L1324.3 481H1285.3L1290.1 358C1290.5 348 1295.56 343 1305.3 343H1342.7C1352.03 343 1357.5 347.467 1359.1 356.4L1369.1 411.2C1369.63 414.533 1370.03 417.933 1370.3 421.4C1370.7 424.867 1371.03 428.333 1371.3 431.8H1373.1C1373.5 428.333 1373.83 424.867 1374.1 421.4C1374.5 417.933 1374.96 414.533 1375.5 411.2L1384.9 356.4C1386.5 347.467 1392.03 343 1401.5 343H1439.7Z" fill="white"/>
<path d="M348.914 61.0796C348.914 30.4032 373.701 5.53418 404.277 5.53418H414.242C444.817 5.53418 469.604 30.4032 469.604 61.0796V465.454C469.604 496.131 444.817 521 414.242 521H404.277C373.701 521 348.914 496.131 348.914 465.454V61.0796Z" fill="#0668E1"/>
<path d="M67.7861 5.11371H57.8053C27.1832 5.11371 2.35889 29.9931 2.35889 60.6834V465.226C2.35889 495.916 27.1832 520.795 57.8053 520.795H67.7861C98.4081 520.795 123.232 495.916 123.232 465.226V60.6834C123.232 29.9931 98.4081 5.11371 67.7861 5.11371Z" fill="#0668E1"/>
<path d="M438.266 8.98006L429.175 4.88969C401.284 -7.66508 368.548 4.79053 356.057 32.7088L180.386 425.382C167.895 453.299 180.381 486.11 208.273 498.663L217.364 502.754C245.257 515.309 277.993 502.854 290.482 474.935L466.154 82.2619C478.644 54.3436 466.158 21.5347 438.266 8.98006Z" fill="#FE784F"/>
<path d="M5.24902 87.6114C-8.11769 58.0914 4.92454 23.3507 34.3794 10.0158L43.9795 5.66975C73.434 -7.66516 108.149 5.45597 121.516 34.9763L297.712 424.099C311.079 453.619 298.037 488.36 268.581 501.695L258.982 506.042C229.526 519.375 194.813 506.254 181.446 476.735L5.24902 87.6114Z" fill="#0080FB"/>
</svg>
