<svg width="800" height="800" viewBox="0 0 800 800" fill="none" xmlns="http://www.w3.org/2000/svg">
<path d="M565.185 109.099C565.185 64.3501 601.287 28.0728 645.82 28.0728H660.333C704.866 28.0728 740.967 64.3501 740.967 109.099V698.973C740.967 743.722 704.866 780 660.333 780H645.82C601.287 780 565.185 743.722 565.185 698.973V109.099Z" fill="#0668E1"/>
<path d="M155.729 27.4595H141.192C96.5916 27.4595 60.4355 63.7519 60.4355 108.521V698.64C60.4355 743.409 96.5916 779.701 141.192 779.701H155.729C200.329 779.701 236.485 743.409 236.485 698.64V108.521C236.485 63.7519 200.329 27.4595 155.729 27.4595Z" fill="#0668E1"/>
<path d="M695.324 33.0995L682.083 27.1328C641.46 8.8187 593.781 26.9881 575.589 67.7133L319.727 640.518C301.536 681.242 319.721 729.104 360.344 747.417L373.586 753.384C414.21 771.698 461.89 753.529 480.08 712.803L735.942 139.998C754.133 99.2728 735.948 51.4134 695.324 33.0995Z" fill="#FE784F"/>
<path d="M64.6451 147.802C45.1768 104.74 64.1725 54.0624 107.073 34.6103L121.055 28.2706C163.955 8.8185 214.516 27.9587 233.985 71.021L490.611 638.648C510.079 681.709 491.084 732.387 448.182 751.84L434.201 758.18C391.299 777.63 340.74 758.49 321.271 715.429L64.6451 147.802Z" fill="#0080FB"/>
</svg>
