<svg width="1071" height="521" viewBox="0 0 1071 521" fill="none" xmlns="http://www.w3.org/2000/svg">
<path d="M568 341.4C580.8 341.4 591 342.467 598.6 344.6C606.2 346.6 611.667 350.2 615 355.4C618.333 360.6 620 367.933 620 377.4C620 387.267 618.067 394.8 614.2 400C610.333 405.067 603.867 408 594.8 408.8V410C605.867 410.933 613.6 414.533 618 420.8C622.4 426.933 624.6 435.533 624.6 446.6C624.6 456.067 622.8 463.4 619.2 468.6C615.733 473.8 610.333 477.467 603 479.6C595.667 481.6 586.2 482.6 574.6 482.6C564.733 482.6 556 482.533 548.4 482.4C540.933 482.4 534 482.267 527.6 482C521.333 481.733 514.933 481.4 508.4 481L511.6 452.6C515.067 452.733 521.8 452.867 531.8 453C541.8 453.133 553.467 453.2 566.8 453.2C570.8 453.2 573.867 452.8 576 452C578.133 451.2 579.533 449.667 580.2 447.4C581 445.133 581.4 441.933 581.4 437.8C581.4 433.533 581 430.267 580.2 428C579.4 425.733 577.933 424.2 575.8 423.4C573.8 422.6 570.733 422.2 566.6 422.2H511.4V396.8H566.2C569.533 396.8 572.067 396.467 573.8 395.8C575.667 395.133 576.933 393.867 577.6 392C578.267 390 578.6 387.2 578.6 383.6C578.6 380 578.267 377.333 577.6 375.6C576.933 373.733 575.667 372.467 573.8 371.8C571.933 371.133 569.267 370.8 565.8 370.8C557.4 370.8 550.067 370.8 543.8 370.8C537.533 370.667 531.867 370.667 526.8 370.8C521.733 370.8 516.667 371 511.6 371.4L508.4 343C514.4 342.467 520.267 342.133 526 342C531.733 341.733 537.933 341.6 544.6 341.6C551.4 341.467 559.2 341.4 568 341.4ZM550.8 343V481H508.4V343H550.8ZM718.031 343C721.498 343 724.565 344 727.231 346C729.898 348 731.698 350.733 732.631 354.2L768.431 481H724.231L703.431 391.2C702.898 388.667 702.431 386.067 702.031 383.4C701.631 380.6 701.298 377.933 701.031 375.4H695.631C695.365 377.933 695.031 380.6 694.631 383.4C694.231 386.067 693.765 388.667 693.231 391.2L672.431 481H628.231L664.031 354.2C664.965 350.733 666.765 348 669.431 346C672.098 344 675.165 343 678.631 343H718.031ZM735.031 420.8V451.2H661.631V420.8H735.031ZM829.355 340.2C836.555 340.2 844.621 340.667 853.555 341.6C862.621 342.4 871.288 344.267 879.555 347.2L876.955 375C870.955 374.867 863.488 374.8 854.555 374.8C845.755 374.667 837.021 374.6 828.355 374.6C825.821 374.6 823.688 374.667 821.955 374.8C820.355 374.933 819.088 375.2 818.155 375.6C817.221 376 816.555 376.533 816.155 377.2C815.755 377.867 815.555 378.733 815.555 379.8C815.555 381.667 816.355 383.267 817.955 384.6C819.688 385.8 822.888 387.333 827.555 389.2L852.555 399.6C864.021 404.533 872.021 410.267 876.555 416.8C881.221 423.2 883.555 431.467 883.555 441.6C883.555 449.333 882.621 455.933 880.755 461.4C878.888 466.733 875.755 471.067 871.355 474.4C867.088 477.6 861.355 479.933 854.155 481.4C846.955 483 837.955 483.8 827.155 483.8C822.488 483.8 815.421 483.4 805.955 482.6C796.488 481.933 785.755 480.067 773.755 477L776.355 446.6C784.355 446.733 791.688 446.933 798.355 447.2C805.021 447.333 810.755 447.467 815.555 447.6C820.488 447.6 824.155 447.6 826.555 447.6C830.288 447.6 833.088 447.467 834.955 447.2C836.955 446.933 838.288 446.467 838.955 445.8C839.755 445 840.155 444 840.155 442.8C840.155 441.467 839.888 440.4 839.355 439.6C838.821 438.667 837.888 437.8 836.555 437C835.221 436.2 833.288 435.333 830.755 434.4L803.355 422.4C792.155 417.333 784.221 411.667 779.555 405.4C774.888 399.133 772.555 390.933 772.555 380.8C772.555 372.933 773.555 366.4 775.555 361.2C777.688 356 780.955 351.867 785.355 348.8C789.755 345.733 795.555 343.533 802.755 342.2C810.088 340.867 818.955 340.2 829.355 340.2ZM942.225 343V481H899.225V343H942.225ZM1021.88 340.6C1029.08 340.6 1035.22 340.8 1040.28 341.2C1045.35 341.6 1049.95 342.2 1054.08 343C1058.35 343.667 1062.75 344.667 1067.28 346L1064.08 377.6C1059.42 377.467 1055.08 377.4 1051.08 377.4C1047.08 377.4 1042.82 377.4 1038.28 377.4C1033.75 377.267 1028.28 377.2 1021.88 377.2C1017.35 377.2 1013.82 378.2 1011.28 380.2C1008.88 382.067 1007.22 385.533 1006.28 390.6C1005.35 395.533 1004.88 402.667 1004.88 412C1004.88 421.333 1005.35 428.533 1006.28 433.6C1007.22 438.533 1008.88 442 1011.28 444C1013.82 445.867 1017.35 446.8 1021.88 446.8C1031.88 446.8 1040.22 446.733 1046.88 446.6C1053.68 446.333 1060.42 445.867 1067.08 445.2L1070.28 476.8C1063.35 479.2 1056.22 480.867 1048.88 481.8C1041.68 482.867 1032.68 483.4 1021.88 483.4C1006.68 483.4 994.483 481.133 985.283 476.6C976.083 471.933 969.416 464.4 965.283 454C961.283 443.6 959.283 429.6 959.283 412C959.283 394.4 961.283 380.4 965.283 370C969.416 359.6 976.083 352.133 985.283 347.6C994.483 342.933 1006.68 340.6 1021.88 340.6Z" fill="white"/>
<path d="M348.914 61.0796C348.914 30.4032 373.701 5.53418 404.277 5.53418H414.242C444.817 5.53418 469.604 30.4032 469.604 61.0796V465.454C469.604 496.131 444.817 521 414.242 521H404.277C373.701 521 348.914 496.131 348.914 465.454V61.0796Z" fill="#0668E1"/>
<path d="M67.7861 5.11371H57.8053C27.1832 5.11371 2.35889 29.9931 2.35889 60.6834V465.226C2.35889 495.916 27.1832 520.795 57.8053 520.795H67.7861C98.4081 520.795 123.232 495.916 123.232 465.226V60.6834C123.232 29.9931 98.4081 5.11371 67.7861 5.11371Z" fill="#0668E1"/>
<path d="M438.266 8.98006L429.175 4.88969C401.284 -7.66508 368.548 4.79053 356.057 32.7088L180.386 425.382C167.895 453.299 180.381 486.11 208.273 498.663L217.364 502.754C245.257 515.309 277.993 502.854 290.482 474.935L466.154 82.2619C478.644 54.3436 466.158 21.5347 438.266 8.98006Z" fill="#FE784F"/>
<path d="M5.24902 87.6114C-8.11769 58.0914 4.92454 23.3507 34.3794 10.0158L43.9795 5.66975C73.434 -7.66516 108.149 5.45597 121.516 34.9763L297.712 424.099C311.079 453.619 298.037 488.36 268.581 501.695L258.982 506.042C229.526 519.375 194.813 506.254 181.446 476.735L5.24902 87.6114Z" fill="#0080FB"/>
</svg>
